<svg xmlns="http://www.w3.org/2000/svg" viewBox="0 0 512 512">
  <defs>
    <linearGradient id="bg" x1="0" y1="0" x2="1" y2="1">
      <stop offset="0%" stop-color="#24344f" />
      <stop offset="100%" stop-color="#d45c34" />
    </linearGradient>
    <linearGradient id="portal" x1="0" y1="0" x2="0" y2="1">
      <stop offset="0%" stop-color="#8ef9eb" />
      <stop offset="100%" stop-color="#1dc7c0" />
    </linearGradient>
  </defs>
  <rect width="512" height="512" rx="110" fill="url(#bg)" />
  <rect x="92" y="286" width="328" height="104" rx="24" fill="#7a4a28" />
  <rect x="92" y="254" width="328" height="40" rx="18" fill="#6cae46" />
  <rect x="96" y="226" width="64" height="28" rx="12" fill="#94d76c" />
  <rect x="182" y="226" width="64" height="28" rx="12" fill="#94d76c" />
  <rect x="268" y="226" width="64" height="28" rx="12" fill="#94d76c" />
  <rect x="352" y="226" width="64" height="28" rx="12" fill="#94d76c" />
  <rect x="188" y="108" width="136" height="164" rx="24" fill="#5d6679" />
  <rect x="214" y="136" width="84" height="112" rx="18" fill="url(#portal)" />
  <circle cx="132" cy="156" r="34" fill="#ffbf3a" />
  <path d="M132 126l7 19 20 2-15 13 5 20-17-11-17 11 5-20-15-13 20-2z" fill="#fff5dd" />
</svg>
